/* XPM */
static char *_3bf8e9c826b4aa9a3feff2468254ff0kOrWOTKIVdnMFvvp[] = {
/* columns rows colors chars-per-pixel */
"32 32 126 2 ",
"   c None",
".  c black",
"X  c #020101",
"o  c #030101",
"O  c #020202",
"+  c #050101",
"@  c #060202",
"#  c #0B0303",
"$  c #0D0404",
"%  c #090909",
"&  c #0C0C0C",
"*  c #100505",
"=  c #120505",
"-  c #140606",
";  c #170707",
":  c #110E0E",
">  c #1B0B0C",
",  c #1B0C0D",
"<  c #101010",
"1  c #131313",
"2  c #260B0B",
"3  c #280C0C",
"4  c #2A0C0C",
"5  c #2C0D0D",
"6  c #220E10",
"7  c #2E1011",
"8  c #361010",
"9  c #371010",
"0  c #3A1111",
"q  c #3E1212",
"w  c #3F1212",
"e  c #341518",
"r  c #373232",
"t  c #3A3A3A",
"y  c #451414",
"u  c #481515",
"i  c #4B1616",
"p  c #4C1616",
"a  c #4F1717",
"s  c #591B1B",
"d  c #691F1F",
"f  c #551E20",
"g  c #5E1E20",
"h  c #762222",
"j  c #75282C",
"k  c #653E3E",
"l  c #78383D",
"z  c #454343",
"x  c gray27",
"c  c #5B4C4D",
"v  c #6A4545",
"b  c #686060",
"n  c #6A6A6A",
"m  c #796567",
"M  c #882727",
"N  c #83343B",
"B  c #84353C",
"V  c #86363D",
"C  c #8D373F",
"Z  c #8D383F",
"A  c #8F383F",
"S  c #9D363B",
"D  c #A43335",
"F  c #AC3232",
"G  c #AD3333",
"H  c #AE3334",
"J  c #AE3434",
"K  c #AE3435",
"L  c #AF3435",
"P  c #AF3535",
"I  c #AF3436",
"U  c #A83638",
"Y  c #B03536",
"T  c #B13637",
"R  c #B13638",
"E  c #B23638",
"W  c #B23738",
"Q  c #B23739",
"!  c #B33739",
"~  c #B33839",
"^  c #B1383B",
"/  c #B3383A",
"(  c #B4393B",
")  c #B5393B",
"_  c #B5393C",
"`  c #B53A3C",
"'  c #B63A3D",
"]  c #B73A3D",
"[  c #B73A3E",
"{  c #B83B3E",
"}  c #B83C3F",
"|  c #B93C3F",
" . c #903A41",
".. c #9D3F48",
"X. c #B83C40",
"o. c #B93C40",
"O. c #B93E43",
"+. c #BB3E42",
"@. c #BB3F43",
"#. c #BC3F43",
"$. c #BC4044",
"%. c #BD4044",
"&. c #BE4146",
"*. c #BF4146",
"=. c #A14B51",
"-. c #B14751",
";. c #C2444A",
":. c #C2444B",
">. c #C5474D",
",. c #C6474E",
"<. c #C6484E",
"1. c #C6484F",
"2. c #C7484F",
"3. c #C84951",
"4. c #C94A52",
"5. c #CB4B53",
"6. c #CB4D57",
"7. c #CE4E57",
"8. c #C44F5A",
"9. c #C8505B",
"0. c #D2515B",
"q. c #D95763",
"w. c #958586",
"e. c #998A8B",
"r. c #D18E92",
"t. c #D8999D",
/* pixels */
"                                                                ",
"                                                                ",
"                                                                ",
"                                                                ",
"                                                                ",
"                            0.>.~                               ",
"                            5.Q F                               ",
"                      5.%.    `     Q                           ",
"                    5.{ Q Y   +.          >.%.                  ",
"                    >.Y F F F Y     %.H 7.` J                   ",
"                    X.H F Q { Q F         J F                   ",
"                      F F +.:.` %.`     ;.                      ",
"                    M U ` Q ( { :.( ( 5.D M                     ",
"                    * s F Q Y J Y F J X.g * .                   ",
"                  . . p F ` ( %.X.H ~ 6.f . .                   ",
"                  . . p F F F >.X.H J ^ i . .                   ",
"                  . . . . . . . . . . . . . #                   ",
"                  . . % 1 & . . . . 1 1 % . - F F               ",
"                  . . x e.c : . . . m w.x . ; F F               ",
"                  . . b t.l , . . . =.r.n . ; F F               ",
"                  . . r v 9 2 # - - i k t . - F F               ",
"                  . . . $ 3 a w i y 5 . . . 3 F F               ",
"                  . . . * 0 y y y y 0 . . + w F                 ",
"                  B V V V C A A C A A N j d h                   ",
"                    q.-...8.q.q.q.q.9. .S F                     ",
"                      e 6             , 7                       ",
"                        .             .                         ",
"                                                                ",
"                                                                ",
"                                                                ",
"                                                                ",
"                                                                "
};
