/* XPM */
static char *cd61685121684889b0c8049de33b1a291Y3ZkAwqaxXL5SN4[] = {
/* columns rows colors chars-per-pixel */
"32 32 96 2 ",
"   c None",
".  c #231E2B",
"X  c #352C2C",
"o  c #362D2D",
"O  c #3D322C",
"+  c #3E332D",
"@  c #363031",
"#  c #373133",
"$  c #373234",
"%  c #41312D",
"&  c #4C372D",
"*  c #46392D",
"=  c #4E392E",
"-  c #4E402E",
";  c #48433C",
":  c #49453D",
">  c #60442E",
",  c #66472E",
"<  c #6D4E2F",
"1  c #6C582F",
"2  c #685735",
"3  c #766337",
"4  c #534F42",
"5  c #65614A",
"6  c #69654C",
"7  c #6D694E",
"8  c #7B734C",
"9  c #726E50",
"0  c #7D7955",
"q  c #886131",
"w  c #8B6231",
"e  c #966531",
"r  c #996C31",
"t  c #8F7231",
"y  c #917431",
"u  c #A17032",
"i  c #A17F32",
"p  c #AB7C33",
"a  c #B17932",
"s  c #A28232",
"d  c #A4883B",
"f  c #B68733",
"g  c #B59033",
"h  c #BB9134",
"j  c #BB9534",
"k  c #B7973D",
"l  c #C19A34",
"z  c #C19B36",
"x  c #D49535",
"c  c #D69935",
"v  c #D99F35",
"b  c #D5993A",
"n  c #D3A535",
"m  c #DAA135",
"M  c #DAA335",
"N  c #DBA535",
"B  c #DDA835",
"V  c #D9AD36",
"C  c #E0AF36",
"Z  c #E0B036",
"A  c #E1B136",
"S  c #E1B236",
"D  c #E2B436",
"F  c #E3B639",
"G  c #E3B73A",
"H  c #978C53",
"J  c #A2995C",
"K  c #B2A65E",
"L  c #BDAC5A",
"P  c #A19E66",
"I  c #B9B672",
"U  c #C59749",
"Y  c #D9A247",
"T  c #DCAA41",
"R  c #DAA74E",
"E  c #DCAC4E",
"W  c #DCB040",
"Q  c #DCB642",
"!  c #DEB24F",
"~  c #E4BC41",
"^  c #E5BD43",
"/  c #E5BE44",
"(  c #CCBD64",
")  c #C0B76A",
"_  c #E6C047",
"`  c #E6C34A",
"'  c #E9CC57",
"]  c #E9CC5E",
"[  c #C3C076",
"{  c #E3C063",
"}  c #E4C363",
"|  c #EAD164",
" . c #EDD868",
".. c #EEDD6F",
"X. c #E9DC7D",
"o. c #F2EA81",
/* pixels */
"                                                                ",
"                                                                ",
"                                                                ",
"                                                                ",
"                                                                ",
"                                                                ",
"                                                                ",
"                    o X X o o o @ # # #                         ",
"                . * g g g g g g L [ [ [ 9                       ",
"                1 y Z N v m v v ! { } | K 7                     ",
"              . s D n p e e e e e e u n ' H .                   ",
"              . s Z z 2 # # # o X o - z Z t .                   ",
"              . r c Q ( [ [ ) k g g j V m q .                   ",
"                = < b Y R E ` F N x x x w =                     ",
"                  % e e e u D D f e e e >                       ",
"                    . . . + F / 3 . . .                         ",
"                        . + ~ ..8 .                             ",
"                        . + ` o.0 . .                           ",
"                        . + ~  .J 6 5                           ",
"                        . + D D ] X.I :                         ",
"                        . + D D T U 4                           ",
"                        . + D D C W I :                         ",
"                        . + Z B h d P ;                         ",
"                          + h a , . .                           ",
"                            . .                                 ",
"                                                                ",
"                                                                ",
"                                                                ",
"                                                                ",
"                                                                ",
"                                                                ",
"                                                                "
};
