/* XPM */
static char *_e2ded39340348128c066d11a2ffc2ffvJWkXDZFS0plc40q[] = {
/* columns rows colors chars-per-pixel */
"32 32 217 2 ",
"   c None",
".  c black",
"X  c #000407",
"o  c #060607",
"O  c #0C0202",
"+  c #0F0202",
"@  c #0E0303",
"#  c #000508",
"$  c #070709",
"%  c #07070A",
"&  c #0B0A0A",
"*  c #0C0A08",
"=  c #110303",
"-  c #1B0606",
";  c #1C0604",
":  c #030D16",
">  c #010E1A",
",  c #04101A",
"<  c #01101D",
"1  c #081219",
"2  c #19191B",
"3  c gray10",
"4  c #18181D",
"5  c #1A1A1E",
"6  c #1E1E1E",
"7  c #200B08",
"8  c #390A0A",
"9  c #241012",
"0  c #2B1917",
"q  c #251D18",
"w  c #2C221C",
"e  c #001425",
"r  c #011C31",
"t  c #03283D",
"y  c #182834",
"u  c #0B353D",
"i  c gray13",
"p  c #252525",
"a  c #3D2D23",
"s  c #3E2F28",
"d  c #2F2F30",
"f  c #323233",
"g  c gray20",
"h  c #3B3034",
"j  c #4A0A0A",
"k  c #4F0B0B",
"l  c #570705",
"z  c #5A1313",
"x  c #54181B",
"c  c #601111",
"v  c #601313",
"b  c #6A1212",
"n  c #681314",
"m  c #6A1414",
"M  c #6F1414",
"N  c #701617",
"B  c #701717",
"V  c #7D1818",
"C  c #472519",
"Z  c #45251E",
"A  c #631E24",
"S  c #472525",
"D  c #472E23",
"F  c #4A242A",
"G  c #5F2F31",
"H  c #503D3C",
"J  c #752629",
"K  c #603E3B",
"L  c #0F3454",
"P  c #253D41",
"I  c #2D3E57",
"U  c #753641",
"Y  c #03487F",
"T  c #19527F",
"R  c #244161",
"E  c #2A4F6C",
"W  c #324B6B",
"Q  c #234D74",
"!  c #345672",
"~  c #464646",
"^  c #494949",
"/  c #485165",
"(  c #5A5463",
")  c #586978",
"_  c #616162",
"`  c #636364",
"'  c #77656F",
"]  c #796D69",
"[  c #606678",
"{  c #796072",
"}  c #7C6F73",
"|  c #79797C",
" . c #79797D",
".. c #871C1C",
"X. c #841E1E",
"o. c #871E1E",
"O. c #8B1D1D",
"+. c #8E1E1E",
"@. c #901F1F",
"#. c #8A2223",
"$. c #8E2323",
"%. c #802728",
"&. c #8D2A2D",
"*. c #922020",
"=. c #932121",
"-. c #932323",
";. c #972323",
":. c #912526",
">. c #9C2323",
",. c #9D2323",
"<. c #982627",
"1. c #9F2525",
"2. c #932829",
"3. c #93282B",
"4. c #8C393E",
"5. c #903638",
"6. c #A02525",
"7. c #A22626",
"8. c #A32626",
"9. c #A72929",
"0. c #AA2929",
"q. c #B02D2D",
"w. c #B12D2D",
"e. c #B42E2E",
"r. c #B73030",
"t. c #BC3232",
"y. c #BD3333",
"u. c #BE3333",
"i. c #BF3434",
"p. c #C23535",
"a. c #C83838",
"s. c #8A543F",
"d. c #AB432F",
"f. c #BC4A38",
"g. c #A15339",
"h. c #B75C3E",
"j. c #843F43",
"k. c #895F4E",
"l. c #874751",
"z. c #824852",
"x. c #91595F",
"c. c #966755",
"v. c #9B6E59",
"b. c #BA6347",
"n. c #B96849",
"m. c #B6795F",
"M. c #8C6165",
"N. c #836867",
"B. c #977361",
"V. c #956874",
"C. c #B27076",
"Z. c #C47A5B",
"A. c #DB7259",
"S. c #C47C62",
"D. c #CD7F65",
"F. c #BE8272",
"G. c #DB8965",
"H. c #CF9879",
"J. c #F38860",
"K. c #E89773",
"L. c #F49971",
"P. c #F89E77",
"I. c #064F8A",
"U. c #07508A",
"Y. c #03508D",
"T. c #0E518B",
"R. c #145589",
"E. c #145E9D",
"W. c #2F628B",
"Q. c #336C9F",
"!. c #025BA2",
"~. c #025BA3",
"^. c #035DA6",
"/. c #0C60A4",
"(. c #0F61A5",
"). c #0260AC",
"_. c #0364AD",
"`. c #0B65AE",
"'. c #086CA9",
"]. c #1E6EB1",
"[. c #1B75B3",
"{. c #266CA6",
"}. c #3F74A2",
"|. c #3C7CB2",
" X c #636B80",
".X c #1A8AA9",
"XX c #3682B8",
"oX c #559CB1",
"OX c #4087C1",
"+X c #68B1EC",
"@X c #808C9F",
"#X c #908092",
"$X c #998094",
"%X c #909097",
"&X c #95959D",
"*X c #AD838C",
"=X c #B58B94",
"-X c #B38C96",
";X c #9E95A0",
":X c #9C9CA3",
">X c #AC91A4",
",X c #AD9EAC",
"<X c #9FB0BD",
"1X c #A0A0A9",
"2X c #BEADB8",
"3X c #BAABBE",
"4X c #E8AD88",
"5X c #F1B38D",
"6X c #F8B495",
"7X c #F8C7B4",
"8X c #B3B2C0",
"9X c #BAB7C3",
"0X c #BCB4C0",
"qX c #C6C0CE",
"wX c #D9CDC9",
"eX c #CBC9DB",
"rX c #F8DAC8",
/* pixels */
"                                                                ",
"                                                                ",
"                                                                ",
"                              O.+.                              ",
"                         .} 5.b %.M. .                          ",
"                      %X0X=Xx.N j.*X2X:X                        ",
"                    &X9X=Xw.V 6.@.;.C.qX1X                      ",
"                    8X3X4.,.6.u.e.,.&.>XeX`                     ",
"                    ;XV.3.6.u.a.p.0.<.l.,X_                     ",
"                    #Xz.=.r.a.a.a.y.1.J $XG z                   ",
"                    { U ..0.i.i.i.w.*.n A v -.o.                ",
"                  i F x z X.$.:.2.#.m k j 8 B M                 ",
"                ^ 6 O + = - - 9 S K H C 7                       ",
"                . . o % * a w q k.7XwXD.C                       ",
"              . 3 p 5 4 0 A.m.B.4XrX] g.C                       ",
"                    f 3 + l f.H.5X6XZ.Z.D                       ",
"                      d * ; d.G.L.P.K.v.D                       ",
"                        1 L N.F.b.b.k.                          ",
"                        < U.Q.[ / W I                           ",
"                        < U.{.]./.Y.                            ",
"                        < R.@X}.`.~.                            ",
"                        : R h.( /.).                            ",
"                        % h J.' E.!.                            ",
"                        , Q c. X|.R.                            ",
"                        e ^.T.OX+X! .                           ",
"                        : I.).[.XXW.E y                         ",
"                        X r '..XoX<X)                           ",
"                          # t u P ~ g                           ",
"                                                                ",
"                                                                ",
"                                                                ",
"                                                                "
};
