/* XPM */
static char *cc0c9c92e49b46bed9bee1a341aa2264HyDpedXA3wLGM9bf[] = {
/* columns rows colors chars-per-pixel */
"32 32 233 2 ",
"   c None",
".  c black",
"X  c gray2",
"o  c #000508",
"O  c #000509",
"+  c #00060B",
"@  c #00070D",
"#  c #0C0C0C",
"$  c #0C0C0D",
"%  c #0E0E0F",
"&  c #100A0A",
"*  c #000A12",
"=  c #000D17",
"-  c #010E18",
";  c #000E19",
":  c #030F18",
">  c #09131B",
",  c #111111",
"<  c #171515",
"1  c #141416",
"2  c gray9",
"3  c #1C1C1F",
"4  c #3F0909",
"5  c #22110B",
"6  c #001424",
"7  c #001728",
"8  c #01192C",
"9  c #211E20",
"0  c #1C2125",
"q  c #052430",
"w  c #072833",
"e  c #242021",
"r  c #252525",
"t  c gray15",
"y  c #2C2C2C",
"u  c #2D2D2D",
"i  c gray18",
"p  c #3D2527",
"a  c #382920",
"s  c #3B2B27",
"d  c #3A3A3A",
"f  c #38383D",
"g  c #5E0E0E",
"h  c #600E0E",
"j  c #7A1D1D",
"k  c #422217",
"l  c #562E20",
"z  c #58292B",
"x  c #453328",
"c  c #40312C",
"v  c #48352A",
"b  c #5B3728",
"n  c #613122",
"m  c #623627",
"M  c #7D3335",
"N  c #5D4536",
"B  c #78412D",
"V  c #78523F",
"C  c #0F2D45",
"Z  c #003056",
"A  c #013057",
"S  c #263949",
"D  c #3E3A49",
"F  c #003661",
"G  c #023D6B",
"H  c #013D6D",
"J  c #023F70",
"K  c #663E42",
"L  c #00447B",
"P  c #074679",
"I  c #00457C",
"U  c #104C7D",
"Y  c #42404B",
"T  c #45444D",
"R  c #49494F",
"E  c #494F57",
"W  c #704C4C",
"Q  c #705556",
"!  c #646065",
"~  c #756062",
"^  c #796467",
"/  c #686871",
"(  c #76757E",
")  c #882020",
"_  c #8B2223",
"`  c #892E2F",
"'  c #9F2525",
"]  c #972A2B",
"[  c #8E3133",
"{  c #993333",
"}  c #973B3B",
"|  c #973D3D",
" . c #9C393A",
".. c #9D3C3F",
"X. c #A02727",
"o. c #A52929",
"O. c #A82A2A",
"+. c #B12E2E",
"@. c #B32E2E",
"#. c #A53536",
"$. c #8F4B35",
"%. c #814F3A",
"&. c #964C34",
"*. c #89523F",
"=. c #915039",
"-. c #9E4447",
";. c #93464B",
":. c #944448",
">. c #954548",
",. c #954A4F",
"<. c #94585E",
"1. c #A14548",
"2. c #A25940",
"3. c #AA5C43",
"4. c #A5575C",
"5. c #AA705E",
"6. c #A75E63",
"7. c #807674",
"8. c #807477",
"9. c #A77B6E",
"0. c #B07178",
"q. c #B4757C",
"w. c #D67B59",
"e. c #E27C57",
"r. c #C98969",
"t. c #E18A66",
"y. c #024880",
"u. c #034A83",
"i. c #014B85",
"p. c #034B84",
"a. c #034C86",
"s. c #034D89",
"d. c #034E89",
"f. c #0A5885",
"g. c #0C5F86",
"h. c #055189",
"j. c #05538B",
"k. c #025393",
"l. c #055291",
"z. c #025394",
"x. c #015396",
"c. c #035494",
"v. c #025495",
"b. c #02589D",
"n. c #065A9C",
"m. c #0E5C9B",
"M. c #165F99",
"N. c #265C89",
"B. c #0F6384",
"V. c #1B649E",
"C. c #035BA0",
"Z. c #025EA8",
"A. c #025FAA",
"S. c #0A65A0",
"D. c #0161AD",
"F. c #0361AC",
"G. c #0263AF",
"H. c #1A6DAF",
"J. c #0665B0",
"K. c #0166B7",
"L. c #0866B1",
"P. c #0C6EB1",
"I. c #0B6AB5",
"U. c #0B6BB7",
"Y. c #0167B9",
"T. c #0168BA",
"R. c #016ABF",
"E. c #0F6FBB",
"W. c #186EB3",
"Q. c #2576B7",
"!. c #2D77B1",
"~. c #327BB5",
"^. c #4E789B",
"/. c #7E7E83",
"(. c #797984",
"). c #016BC1",
"_. c #016DC5",
"`. c #006FC8",
"'. c #0971C4",
"]. c #0070C9",
"[. c #0172CC",
"{. c #177BCC",
"}. c #0074D0",
"|. c #0076D4",
" X c #0077D6",
".X c #0077D7",
"XX c #0F7DD6",
"oX c #AE7C85",
"OX c #B87B82",
"+X c #368DD3",
"@X c #3795E0",
"#X c #3B9BE7",
"$X c #4AA4EB",
"%X c #60B0F0",
"&X c #64B3F1",
"*X c #818187",
"=X c #958792",
"-X c #9C9A9B",
";X c #AC858E",
":X c #A78C97",
">X c #B6929C",
",X c #BC929D",
"<X c #BC98A3",
"1X c #B89EAA",
"2X c #BAA3AE",
"3X c #C399A4",
"4X c #BEB8C6",
"5X c #B7B2CF",
"6X c #BEBBD3",
"7X c #C1B3C0",
"8X c #CEBAC6",
"9X c #C8BCCA",
"0X c #C3C1D5",
"qX c #C7C7D6",
"wX c #C8C8D8",
"eX c #C9C9D9",
"rX c #CCCCDC",
"tX c #CFCFDF",
"yX c #D1CAD8",
"uX c #DACEDD",
"iX c #D7D3E3",
"pX c #D4D4E4",
"aX c #D6D6E6",
"sX c #D9D9E9",
"dX c #DCDCEC",
"fX c #DFDDED",
"gX c #DEDEEE",
"hX c #DFDFEF",
"jX c #E0E0F0",
"kX c #E1E1F1",
"lX c #E3E3F3",
"zX c #E5E5F5",
"xX c #E8E8F8",
/* pixels */
"                                                                ",
"                                                                ",
"                                                                ",
"                                                                ",
"                        E oX( W ^ *X~                           ",
"                      &. .q.4.j :.OX1.| {                       ",
"                    O.O.` ,XOX_ 4.3X;.' @.                      ",
"                    ' #.;XhXuX<X8XkX2X..@.g                     ",
"                    _ :.7XxXgXwXpXxXyX<.] g                     ",
"                    [ oXiXxXgXwXaXxXgX1X-.g                     ",
"                    M >XjXxXjXwXaXxXzX9X,.4                     ",
"                  < z :XgXxXgXwXaXxXjX4XK &                     ",
"                d < p =XrXsXpXwXpXaXwX( 9 $ u                   ",
"              . . . % f / wX0X5X6XqX(.1 . . . .                 ",
"                  t u , $ R T D Y E 3 X t u                     ",
"                      > - . . . . . * : 0                       ",
"                    6 Z L @ o + o + F H 8                       ",
"                    H Y..X_.u.a.u.A. X[.z.+                     ",
"                5 7.^.U v. X}.}.[. XZ.P N.-Xc                   ",
"              k &.5.! S u.K.)..X].K.k.C E 9.2.n                 ",
"              b e.3.s   a.c.Y..X_.b.s.  e *.w.$.                ",
"              N t.B     l.U.L.F.J.U.n.    x r.=..               ",
"              v %.l     m.@XQ.F.W.+XH.    a V m                 ",
"                        V.&X{.C.E.$X~.                          ",
"                      a.M.%XR.s.Z.#X!.a.                        ",
"                      j.S.XXv.H a.'.P.j.                        ",
"                        B.L - - - A g.f.                        ",
"                        q 8 .     - q                           ",
"                                                                ",
"                                                                ",
"                                                                ",
"                                                                "
};
