/* XPM */
static char *c1a625dc21b74fed9ea231f32fea5d7cFEiUncUVSVvXBFOu[] = {
/* columns rows colors chars-per-pixel */
"32 32 174 2 ",
"   c None",
".  c #000000",
"X  c #0C0C0C",
"o  c #1C0C09",
"O  c #17080A",
"+  c #08141E",
"@  c #1E1E1E",
"#  c #1D1313",
"$  c #200A0C",
"%  c #3C0F0F",
"&  c #271B1A",
"*  c #34211B",
"=  c #14222D",
"-  c #1A2836",
";  c gray16",
":  c #262829",
">  c #3E2E24",
",  c #2B2F35",
"<  c #363335",
"1  c #34393E",
"2  c #37373C",
"3  c #490C0C",
"4  c #5D0E0E",
"5  c #4F1411",
"6  c #6D1515",
"7  c #7D1A1A",
"8  c #4A271C",
"9  c #533D2F",
"0  c #573226",
"q  c #453A39",
"w  c #5C3C31",
"e  c #463429",
"r  c #7B3E2A",
"t  c #653626",
"y  c #384F24",
"u  c #7A432F",
"i  c #604838",
"p  c #754230",
"a  c #1D3140",
"s  c #1E3F5A",
"d  c #293E51",
"f  c #303049",
"g  c #253D6E",
"h  c #224E4D",
"j  c #14735B",
"k  c #144E67",
"l  c #074578",
"z  c #114979",
"x  c #2B566B",
"c  c #294E73",
"v  c #29547A",
"b  c #0C626E",
"n  c #0D6375",
"m  c #157567",
"M  c #4A4344",
"N  c #475D79",
"B  c #735E63",
"V  c #49627B",
"C  c #5B6675",
"Z  c #736C6A",
"A  c #6B6F78",
"S  c #992626",
"D  c #8C342C",
"F  c #9A2E32",
"G  c #8F3238",
"H  c #8F2E31",
"J  c #A92A2A",
"K  c #A32A2A",
"L  c #A9363A",
"P  c #AA393C",
"I  c #A53638",
"U  c #B63131",
"Y  c #B63B3C",
"T  c #9C423B",
"R  c #9A543C",
"E  c #884732",
"W  c #BE4337",
"Q  c #B43E40",
"!  c #9F464F",
"~  c #805143",
"^  c #945744",
"/  c #A74A4E",
"(  c #AD4B47",
")  c #B34841",
"_  c #A15B41",
"`  c #A44D54",
"'  c #A84E52",
"]  c #B25C5C",
"[  c #AD5757",
"{  c #98684F",
"}  c #906A53",
"|  c #AE6548",
" . c #A7664B",
".. c #B16349",
"X. c #A85F6A",
"o. c #807C7A",
"O. c #95766A",
"+. c #A17366",
"@. c #B76970",
"#. c #D47351",
"$. c #D47C5B",
"%. c #C57757",
"&. c #D07C60",
"*. c #208F3C",
"=. c #229351",
"-. c #B9816B",
";. c #F8855D",
":. c #D88F6C",
">. c #D38C70",
",. c #D79370",
"<. c #F88F67",
"1. c #F3946D",
"2. c #E59174",
"3. c #E58C6B",
"4. c #034E89",
"5. c #0A538E",
"6. c #175589",
"7. c #035290",
"8. c #0C5B9A",
"9. c #03579B",
"0. c #125B96",
"q. c #154A85",
"w. c #285780",
"e. c #1A639D",
"r. c #216297",
"t. c #035FA9",
"y. c #035AA0",
"u. c #0561AB",
"i. c #1269AE",
"p. c #1566A5",
"a. c #0269BD",
"s. c #0668B6",
"d. c #216CA8",
"f. c #367DB5",
"g. c #506980",
"h. c #41729A",
"j. c #437EAC",
"k. c #016FC7",
"l. c #0072CD",
"z. c #B37981",
"x. c #AC7D90",
"c. c #7D8C9B",
"v. c #7492AB",
"b. c #1383DD",
"n. c #1F8AE0",
"m. c #3999E4",
"M. c #5DADED",
"N. c #8E929A",
"B. c #949398",
"V. c #A88680",
"C. c #BD848C",
"Z. c #B88F9B",
"A. c #B39EB7",
"S. c #A9A9A9",
"D. c #F8AB83",
"F. c #F4B58D",
"G. c #E0A892",
"H. c #F3B190",
"J. c #F1C2A9",
"K. c #B7AFCA",
"L. c #CABDCB",
"P. c #C1B3C3",
"I. c #C0BED7",
"U. c #CFC2D1",
"Y. c #C9C7DB",
"T. c #CCCCDC",
"R. c #C4C1D5",
"E. c #D2CCDB",
"W. c gray82",
"Q. c #CAC5C4",
"!. c #DBDAEB",
"~. c #D4D4E4",
"^. c #E4E4F4",
"/. c #E8E8F8",
/* pixels */
"                                                                ",
"                                                                ",
"                                                                ",
"                              S S                               ",
"                        Y ' / / / ' Q                           ",
"                      Y @.U.L.L.U.U.C.) J                       ",
"                    F X.L./.^.!.^./.E.@.I                       ",
"                    G Z.T.^.^.!.!./.~.P.` 4                     ",
"                    G x.R.~.!.T.!.!.Y.A./ 4                     ",
"                    H ` A.Y.T.K.I.T.K.X.F 4                     ",
"                    7 S L P P L L P I K S 3                     ",
"                  o 3 6 S U U U U U K 7 4 O                     ",
"                M @ O % D ] ( W ) ..T 5 o X 2                   ",
"                . . # 0 >.W.O.1.@.S.G.p & . .                   ",
"              . @ ; * _ H.Q.9 F.} A J.:.8 : : X                 ",
"                    q w &.2.%.F.2.&.3.E M                       ",
"                    2 , r ;.D.F.F.<.R q f                       ",
"                    z N N.N ..| | B N.C 6.-                     ",
"                $ Z h.w.V c x x x x N v p.B.M                   ",
"                u +.A h z s.n =.m u.9.q.g.-.^ 8                 ",
"              0 #.| e - 7.l.n *.j s.t.  , ^ #.E                 ",
"              i 1.E     5.u.k y h 9.9.    e ,.R .               ",
"              9  .t     5.d.q.f g p.0.    e { p                 ",
"                        e.M.k.u.a.m.f.                          ",
"                        8.n.a.4.u.b.i.                          ",
"                      - v.i.8.l 5.i.f.d                         ",
"                      ; v.f.v + d f.v.1                         ",
"                        - a = . + , 1                           ",
"                                                                ",
"                                                                ",
"                                                                ",
"                                                                "
};
