/* XPM */
static char *_f5fdf617387441ce769cdfe1ccf2f32O4P0yZ4brRnYFWBV[] = {
/* columns rows colors chars-per-pixel */
"32 32 215 2 ",
"   c None",
".  c black",
"X  c #010101",
"o  c #030201",
"O  c gray1",
"+  c #060504",
"@  c #0B0404",
"#  c #0C0706",
"$  c #150303",
"%  c #160303",
"&  c #190504",
"*  c #1C0505",
"=  c #000A12",
"-  c #06131C",
";  c #0C1119",
":  c gray7",
">  c #101014",
",  c gray8",
"<  c #16161C",
"1  c #181818",
"2  c #18181E",
"3  c gray12",
"4  c #280706",
"5  c #260909",
"6  c #260D0B",
"7  c #280A0B",
"8  c #311316",
"9  c #371D14",
"0  c #311919",
"q  c #372219",
"w  c #34261F",
"e  c #0F1921",
"r  c #00182B",
"t  c #0A1A29",
"y  c #041D31",
"u  c #012038",
"i  c #01213A",
"p  c #242426",
"a  c #2B292A",
"s  c #37333B",
"d  c gray22",
"f  c #3C3C3D",
"g  c #480A0A",
"h  c #550C0C",
"j  c #5A130D",
"k  c #5B1313",
"l  c #5C1416",
"z  c #671414",
"x  c #6D1414",
"c  c #6E1414",
"v  c #731515",
"b  c #731717",
"n  c #751616",
"m  c #771818",
"M  c #6A1F23",
"N  c #412222",
"B  c #4C2629",
"V  c #5A2C2C",
"C  c #56342A",
"Z  c #66282F",
"A  c #702024",
"S  c #792D33",
"D  c #012D51",
"F  c #113755",
"G  c #073D68",
"H  c #013E6F",
"J  c #663541",
"K  c #0A445B",
"L  c #14525C",
"P  c #24425A",
"I  c #1C476F",
"U  c #3B5161",
"Y  c #444444",
"T  c #4C4C4C",
"R  c #474B5E",
"E  c #514B58",
"W  c #545355",
"Q  c #57515E",
"!  c #674F46",
"~  c #78514A",
"^  c #5C5969",
"/  c #605C63",
"(  c #4D6165",
")  c #616162",
"_  c #626263",
"`  c #636364",
"'  c #686969",
"]  c #77636C",
"[  c #76686B",
"{  c #6F6878",
"}  c #727274",
"|  c #727275",
" . c #7A717B",
".. c #821B1B",
"X. c #8C1E1E",
"o. c #8E1E1E",
"O. c #982A1E",
"+. c #822324",
"@. c #8B2020",
"#. c #882B2D",
"$. c #912222",
"%. c #932223",
"&. c #972222",
"*. c #962323",
"=. c #952424",
"-. c #972424",
";. c #9C2323",
":. c #9C2424",
">. c #9F2424",
",. c #9D2526",
"<. c #98282A",
"1. c #8F2E30",
"2. c #952D31",
"3. c #873A3F",
"4. c #A02929",
"5. c #A12A2A",
"6. c #A52828",
"7. c #A62828",
"8. c #A32B2C",
"9. c #A92929",
"0. c #AE2C2C",
"q. c #B12D2D",
"w. c #B62F2F",
"e. c #B63030",
"r. c #B83131",
"t. c #B93131",
"y. c #BD3333",
"u. c #C23535",
"i. c #C53737",
"p. c #C63737",
"a. c #C83838",
"s. c #874732",
"d. c #AD5B3F",
"f. c #844448",
"g. c #885E4B",
"h. c #935A42",
"j. c #864F5A",
"k. c #87595C",
"l. c #AE5F4C",
"z. c #B95C45",
"x. c #856051",
"c. c #806354",
"v. c #956F5D",
"b. c #A3604D",
"n. c #A2644E",
"m. c #A4644E",
"M. c #AB705E",
"N. c #905967",
"B. c #9D6C61",
"V. c #976269",
"C. c #88677F",
"Z. c #CE6947",
"A. c #D47759",
"S. c #C37C67",
"D. c #BA8C72",
"F. c #CE8563",
"G. c #D78968",
"H. c #DD8C6C",
"J. c #D9916E",
"K. c #F8A37B",
"L. c #F8A27E",
"P. c #034C87",
"I. c #03508D",
"U. c #03518F",
"Y. c #11558C",
"T. c #035291",
"R. c #065491",
"E. c #0A5593",
"W. c #085695",
"Q. c #025699",
"!. c #356893",
"~. c #1265A9",
"^. c #166AAF",
"/. c #0165B3",
"(. c #0164B4",
"). c #0768B4",
"_. c #016ABF",
"`. c #1F77BB",
"'. c #2472B0",
"]. c #3A7BB2",
"[. c #5B7798",
"{. c #407AAA",
"}. c #9D7787",
"|. c #937D8D",
" X c #1186BE",
".X c #219DBF",
"XX c #678DB1",
"oX c #418AC3",
"OX c #7FB6CE",
"+X c #6FB9F4",
"@X c #848489",
"#X c #8D8D93",
"$X c #8E8E94",
"%X c #9E889B",
"&X c #AF919C",
"*X c #A19AA7",
"=X c #B098A2",
"-X c #B099AA",
";X c #B2A6B6",
":X c #B6AEB8",
">X c #B3B0BA",
",X c #C38790",
"<X c #F3B28B",
"1X c #F8B890",
"2X c #C6A8B4",
"3X c #F8C1AD",
"4X c #B6B5C0",
"5X c #B7B7C4",
"6X c #BFB2C4",
"7X c #ABC2D5",
"8X c #CDCBD9",
"9X c #F4DBD3",
"0X c #D1D0E1",
"qX c #F8E8E2",
"wX c #F8EFE9",
/* pixels */
"                                                                ",
"                                                                ",
"                                                                ",
"                              o.                                ",
"                        | [ #.n +.k.}                           ",
"                      @X>X=XV.z f.&X:X$X                        ",
"                    @X4X2Xt.n ;...*.,X8X#X                      ",
"                    5X6X3.>.9.w.7.;.#.-X0X`                     ",
"                    *X}.2.4.w.p.y.7.<.N.;X)                     ",
"                  V |.j.$.q.p.a.p.t.4.S %X)                     ",
"              m =.b Z M X.0.u.u.u.w.%.M }.T                     ",
"              c @.k g h c $.8.5.4.-.m l J p                     ",
"                    & 6 0 N B 8 7 7 * % $ : Y                   ",
"                    9 m.9XqXd.# O O O O O O O                   ",
"                    9 s.! wX<Xc.g.H.C < 2 1 , O                 ",
"                    q h.n.3X1XD.l.O.4 > p T                     ",
"                    w g.G.L.K.J.z.j @ 3 f                       ",
"                        v.F.Z.S.B.s - d                         ",
"                          R E  .[.Y.y                           ",
"                          P.W.^.~.I.D                           ",
"                          U./.].XX!.i                           ",
"                          T._.^ l.Q y                           ",
"                          U.(.] A.~ ;                           ",
"                          G '.{ M.^ t                           ",
"                          e +X{.I E.D                           ",
"                        P F oX`.).Q.i                           ",
"                        U 7XOX.X XH =                           ",
"                          ' ( L K r O                           ",
"                                                                ",
"                                                                ",
"                                                                ",
"                                                                "
};
