/* XPM */
static char *_77dc88f01fe4970e46246868a9bb4f7k1Ft4ywm9qVvel4V[] = {
/* columns rows colors chars-per-pixel */
"32 32 8 1 ",
"  c #25374C",
". c #5B7999",
"X c #748CA5",
"o c #738BA4",
"O c #334B66",
"+ c #0F0F26",
"@ c #474C66",
"# c #6B7399",
/* pixels */
"                                ",
" .............................. ",
" .............................. ",
" ..XooooooooooooooooooooooooX.. ",
" ..XOOOOOOOOOOOOOOOOOOOOOOOOX.. ",
" ..XOOOOOOOOOOOOOOOOOOOOOOOOX.. ",
" ..XOO                    OOX.. ",
" ..XOO +++@@##++++@@##+++ OOX.. ",
" ..XOO +++@@##++++@@##+++ OOX.. ",
" ..XOO +++@@##++++@@##+++ OOX.. ",
" ..XOO ###@@######@@##### OOX.. ",
" ..XOO ###@@######@@##### OOX.. ",
" ..XOO @@@@@##@@@@@@##@@@ OOX.. ",
" ..XOO @@@@@##@@@@@@##@@@ OOX.. ",
" ..XOO +++@@##++++@@##+++ OOX.. ",
" ..XOO +++@@##++++@@##+++ OOX.. ",
" ..XOO +++@@##++++@@##+++ OOX.. ",
" ..XOO +++@@##++++@@##+++ OOX.. ",
" ..XOO ###@@######@@##### OOX.. ",
" ..XOO ###@@######@@##### OOX.. ",
" ..XOO @@@@@##@@@@@@##@@@ OOX.. ",
" ..XOO @@@@@##@@@@@@##@@@ OOX.. ",
" ..XOO +++@@##++++@@##+++ OOX.. ",
" ..XOO +++@@##++++@@##+++ OOX.. ",
" ..XOO +++@@##++++@@##+++ OOX.. ",
" ..XOO                    OOX.. ",
" ..XOOOOOOOOOOOOOOOOOOOOOOOOX.. ",
" ..XOOOOOOOOOOOOOOOOOOOOOOOOX.. ",
" ..XooooooooooooooooooooooooX.. ",
" .............................. ",
" .............................. ",
"                                "
};
