/* XPM */
static char *b0b96696cc2a4840e0d77849320b00bafwe4RXwWYUC1vd9I[] = {
/* columns rows colors chars-per-pixel */
"32 32 8 1 ",
"  c #25374C",
". c #5B7999",
"X c #748CA5",
"o c #738BA4",
"O c #334B66",
"+ c #0F0F26",
"@ c #474C66",
"# c #474C65",
/* pixels */
"                                ",
" .............................. ",
" .............................. ",
" ..XooooooooooooooooooooooooX.. ",
" ..XOOOOOOOOOOOOOOOOOOOOOOOOX.. ",
" ..XOOOOOOOOOOOOOOOOOOOOOOOOX.. ",
" ..XOO                    OOX.. ",
" ..XOO +++@@@@++++@@@@+++ OOX.. ",
" ..XOO +++@@@@++++@@@@+++ OOX.. ",
" ..XOO ++++##++++++##++++ OOX.. ",
" ..XOO @@++++++++++++++@@ OOX.. ",
" ..XOO @@@++++++++++++@@@ OOX.. ",
" ..XOO @@@++++++++++++@@@ OOX.. ",
" ..XOO @@++++++++++++++@@ OOX.. ",
" ..XOO ++++++++++++++++++ OOX.. ",
" ..XOO ++++++++++++++++++ OOX.. ",
" ..XOO ++++++++++++++++++ OOX.. ",
" ..XOO ++++++++++++++++++ OOX.. ",
" ..XOO @@++++++++++++++@@ OOX.. ",
" ..XOO @@@++++++++++++@@@ OOX.. ",
" ..XOO @@@++++++++++++@@@ OOX.. ",
" ..XOO @@++++++++++++++@@ OOX.. ",
" ..XOO ++++##++++++##++++ OOX.. ",
" ..XOO +++@@@@++++@@@@+++ OOX.. ",
" ..XOO +++@@@@++++@@@@+++ OOX.. ",
" ..XOO                    OOX.. ",
" ..XOO                    OOX.. ",
" ..XOO                    OOX.. ",
" ..oOO                    OOX.. ",
" .............................. ",
" .............................. ",
"                                "
};
