/* XPM */
static char *_ec5d35a0d7e486895e5713f21239094o9FYxgW5TMPpH8Mu[] = {
/* columns rows colors chars-per-pixel */
"32 32 4 1 ",
"  c #192533",
". c #748CA5",
"X c #5B7999",
"o c #334B66",
/* pixels */
"                                ",
" ....XX  ......XX....XX  ....XX ",
" ....XX  ......XX....XX  ....XX ",
" XXXXXX  ..XXXXXXXXXXXX  XXXXXX ",
" XXXXXX  ..XXXXXXXXXXXX  XXXXXX ",
" oooooo  oooooooooooooo  oooooo ",
" oooooo  oooooooooooooo  oooooo ",
"                                ",
"                                ",
" ......XX....XX  ......XX....XX ",
" ......XX....XX  ......XX....XX ",
" ..XXXXXXXXXXXX  ..XXXXXXXXXXXX ",
" ..XXXXXXXXXXXX  ..XXXXXXXXXXXX ",
" oooooooooooooo  oooooooooooooo ",
" oooooooooooooo  oooooooooooooo ",
"                                ",
"                                ",
" ....XX  ......XX....XX  ....XX ",
" ....XX  ......XX....XX  ....XX ",
" XXXXXX  ..XXXXXXXXXXXX  XXXXXX ",
" XXXXXX  ..XXXXXXXXXXXX  XXXXXX ",
" oooooo  oooooooooooooo  oooooo ",
" oooooo  oooooooooooooo  oooooo ",
"                                ",
"                                ",
" ......XX....XX  ......XX....XX ",
" ......XX....XX  ......XX....XX ",
" ..XXXXXXXXXXXX  ..XXXXXXXXXXXX ",
" ..XXXXXXXXXXXX  ..XXXXXXXXXXXX ",
" oooooooooooooo  oooooooooooooo ",
" oooooooooooooo  oooooooooooooo ",
"                                "
};
